<svg width="604" height="604" viewBox="0 0 604 604" fill="none" xmlns="http://www.w3.org/2000/svg">
<g clip-path="url(#clip0)">
<path d="M103.468 58.64V544.842C103.468 553.028 105.127 560.938 108.399 568.355C111.515 575.418 115.947 581.7 121.572 587.024C132.466 597.334 146.707 603.011 161.673 603.011C174.47 603.011 186.65 598.873 196.897 591.048L301.756 510.958L406.613 591.047C416.86 598.873 429.041 603.01 441.838 603.01C456.805 603.01 471.046 597.332 481.94 587.022C487.564 581.699 491.997 575.418 495.112 568.355C498.384 560.938 500.044 553.027 500.044 544.841V58.64C500.044 26.581 473.963 0.5 441.904 0.5H161.608C129.549 0.5 103.468 26.582 103.468 58.64ZM457.204 58.64V544.842C457.204 553.913 449.762 560.171 441.839 560.171C438.695 560.171 435.478 559.186 432.617 557.002L311.043 464.146C308.301 462.052 305.029 461.005 301.756 461.005C298.483 461.005 295.211 462.052 292.469 464.146L170.895 557.001C168.036 559.186 164.816 560.17 161.673 560.17C153.75 560.17 146.308 553.913 146.308 544.842V58.64C146.308 50.19 153.158 43.34 161.608 43.34H441.904C450.354 43.34 457.204 50.19 457.204 58.64Z" fill="#C4C4C4"/>
<path d="M161.673 603.511C146.579 603.511 132.215 597.784 121.229 587.387C115.555 582.017 111.085 575.682 107.942 568.557C104.642 561.077 102.968 553.098 102.968 544.842V58.64C102.968 26.306 129.274 0 161.608 0H441.903C474.237 0 500.543 26.306 500.543 58.64V544.841C500.543 553.097 498.869 561.075 495.568 568.557C492.427 575.679 487.957 582.014 482.283 587.385C471.297 597.783 456.932 603.51 441.838 603.51C428.931 603.51 416.645 599.338 406.31 591.445L301.756 511.588L197.201 591.446C186.864 599.339 174.579 603.511 161.673 603.511ZM161.608 1C129.825 1 103.968 26.857 103.968 58.64V544.842C103.968 552.958 105.613 560.801 108.857 568.153C111.946 575.156 116.34 581.382 121.917 586.661C132.717 596.883 146.836 602.512 161.674 602.512C174.359 602.512 186.434 598.41 196.595 590.652L301.757 510.331L302.061 510.562L406.918 590.651C417.077 598.41 429.152 602.511 441.839 602.511C456.677 602.511 470.797 596.881 481.597 586.659C487.174 581.38 491.568 575.154 494.656 568.153C497.9 560.8 499.545 552.957 499.545 544.841V58.64C499.545 26.857 473.688 1 441.905 1H161.608ZM441.839 560.671C438.411 560.671 435.117 559.54 432.314 557.4L310.74 464.544C308.137 462.557 305.031 461.506 301.757 461.506C298.483 461.506 295.376 462.557 292.774 464.544L171.2 557.399C168.399 559.54 165.105 560.67 161.675 560.67C154.045 560.67 145.81 554.618 145.81 544.842V58.64C145.81 49.928 152.898 42.84 161.61 42.84H441.906C450.618 42.84 457.706 49.928 457.706 58.64V544.842C457.704 554.619 449.469 560.671 441.839 560.671ZM301.756 460.505C305.251 460.505 308.568 461.626 311.347 463.748L432.921 556.604C435.549 558.61 438.632 559.67 441.839 559.67C448.988 559.67 456.704 554 456.704 544.841V58.64C456.704 50.479 450.064 43.84 441.904 43.84H161.608C153.447 43.84 146.808 50.479 146.808 58.64V544.842C146.808 554.001 154.524 559.67 161.673 559.67C164.881 559.67 167.965 558.609 170.591 556.604L292.165 463.749C294.944 461.626 298.26 460.505 301.756 460.505Z" fill="#C4C4C4"/>
</g>
<defs>
<clipPath id="clip0">
<rect width="603.511" height="603.511" fill="white"/>
</clipPath>
</defs>
</svg>
