<svg width="512" height="512" viewBox="0 0 512 512" fill="none" xmlns="http://www.w3.org/2000/svg">
<path d="M391 332C366.85 332 344.893 341.564 328.712 357.1L232.458 297.467C237.95 284.739 241 270.72 241 256C241 241.28 237.95 227.261 232.457 214.534L328.711 154.901C344.893 170.436 366.85 180 391 180C440.626 180 481 139.626 481 90C481 40.374 440.626 0 391 0C341.374 0 301 40.374 301 90C301 104.651 304.521 118.495 310.758 130.732L216.757 188.97C197.481 165.786 168.436 151 136 151C78.103 151 31 198.103 31 256C31 313.897 78.103 361 136 361C168.436 361 197.481 346.214 216.757 323.03L310.758 381.268C304.521 393.505 301 407.349 301 422C301 471.626 341.374 512 391 512C440.626 512 481 471.626 481 422C481 372.374 440.626 332 391 332V332ZM391 30C424.084 30 451 56.916 451 90C451 123.084 424.084 150 391 150C357.916 150 331 123.084 331 90C331 56.916 357.916 30 391 30ZM136 331C94.645 331 61 297.355 61 256C61 214.645 94.645 181 136 181C177.355 181 211 214.645 211 256C211 297.355 177.355 331 136 331ZM391 482C357.916 482 331 455.084 331 422C331 388.916 357.916 362 391 362C424.084 362 451 388.916 451 422C451 455.084 424.084 482 391 482Z" fill="#C4C4C4"/>
</svg>
